# xmcd
#
# Track frame offsets:
#	182
#	14857
#	40525
#	53335
#	77012
#	105312
#	129335
#	146030
#	163337
#	187967
#	202897
#	216400
#	237625
#
# Disc length: 3344 seconds
#
# Revision: 12
# Processed by: cddbd v1.5.2PL0 Copyright (c) Steve Scherf et al.
# Submitted via: audiograbber 1.83.01
#
DISCID=b00d0e0d
DTITLE=Lenny Kravitz - Let love rule
DYEAR=1989
DGENRE=Rock
TTITLE0=Sittin' on top of the world
TTITLE1=Let love rule
TTITLE2=Freedom train
TTITLE3=My precious love
TTITLE4=I build this garden for us
TTITLE5=Fear
TTITLE6=Does anybody out there even care
TTITLE7=Mr. cab driver
TTITLE8=Rosemary
TTITLE9=Be
TTITLE10=Blues for sister someone
TTITLE11=Empty hands
TTITLE12=Flower child
EXTD=CDVUS 10 YEAR: 1989
EXTT0=
EXTT1=
EXTT2=
EXTT3=
EXTT4=
EXTT5=
EXTT6=
EXTT7=
EXTT8=
EXTT9=
EXTT10=
EXTT11=
EXTT12=
PLAYORDER=
